<svg width="18" height="21" viewBox="0 0 18 21" fill="none" xmlns="http://www.w3.org/2000/svg">
<path fill-rule="evenodd" clip-rule="evenodd" d="M8.6653 16.6316L2.73395 19.881C2.26037 20.1271 1.67694 19.9529 1.41587 19.4874V19.4874C1.34034 19.3432 1.29959 19.1833 1.29688 19.0206V4.62241C1.29688 1.87641 3.17331 0.778015 5.87353 0.778015H12.2168C14.8346 0.778015 16.7934 1.80319 16.7934 4.43934V19.0206C16.7934 19.2803 16.6903 19.5294 16.5066 19.7131C16.3229 19.8968 16.0738 20 15.814 20C15.6484 19.9974 15.4855 19.9566 15.3381 19.881L9.3701 16.6316C9.15019 16.5128 8.88521 16.5128 8.6653 16.6316Z" stroke="#727272" stroke-width="1.5" stroke-linecap="round" stroke-linejoin="round"/>
</svg>
